<svg width="114" height="25" viewBox="0 0 114 25" fill="none" xmlns="http://www.w3.org/2000/svg">
<rect x="57" y="21" width="55.3733" height="3.23189" fill="#0AA192"/>
<path d="M1.776 23.8V7.24H4.752V9.808L4.464 9.784C4.704 9.048 5.032 8.488 5.448 8.104C5.864 7.704 6.336 7.424 6.864 7.264C7.392 7.088 7.936 7 8.496 7C9.504 7 10.368 7.24 11.088 7.72C11.824 8.2 12.384 8.888 12.768 9.784C13.168 10.68 13.368 11.76 13.368 13.024V13.264C13.368 14.496 13.168 15.56 12.768 16.456C12.384 17.352 11.832 18.04 11.112 18.52C10.392 19 9.528 19.24 8.52 19.24C7.624 19.24 6.808 19.024 6.072 18.592C5.352 18.144 4.816 17.488 4.464 16.624L4.968 16.144V23.8H1.776ZM7.536 16.864C8.384 16.864 9.032 16.568 9.48 15.976C9.944 15.368 10.176 14.464 10.176 13.264V13.024C10.176 11.824 9.944 10.92 9.48 10.312C9.032 9.688 8.384 9.376 7.536 9.376C6.96 9.376 6.464 9.52 6.048 9.808C5.632 10.08 5.312 10.496 5.088 11.056C4.864 11.6 4.752 12.288 4.752 13.12C4.752 13.952 4.864 14.648 5.088 15.208C5.312 15.752 5.632 16.168 6.048 16.456C6.464 16.728 6.96 16.864 7.536 16.864ZM21.6146 19.24C20.4626 19.24 19.4226 18.984 18.4946 18.472C17.5826 17.96 16.8546 17.256 16.3106 16.36C15.7826 15.448 15.5186 14.4 15.5186 13.216V12.976C15.5186 11.808 15.7826 10.776 16.3106 9.88C16.8546 8.968 17.5826 8.264 18.4946 7.768C19.4226 7.256 20.4626 7 21.6146 7C22.7666 7 23.7986 7.256 24.7106 7.768C25.6226 8.264 26.3426 8.96 26.8706 9.856C27.4146 10.752 27.6866 11.792 27.6866 12.976V13.216C27.6866 14.4 27.4146 15.448 26.8706 16.36C26.3426 17.256 25.6226 17.96 24.7106 18.472C23.7986 18.984 22.7666 19.24 21.6146 19.24ZM21.6146 16.864C22.1906 16.864 22.6946 16.72 23.1266 16.432C23.5586 16.144 23.8946 15.728 24.1346 15.184C24.3746 14.64 24.4946 13.984 24.4946 13.216V12.976C24.4946 11.824 24.2306 10.936 23.7026 10.312C23.1746 9.688 22.4786 9.376 21.6146 9.376C21.0386 9.376 20.5346 9.52 20.1026 9.808C19.6706 10.08 19.3266 10.488 19.0706 11.032C18.8306 11.576 18.7106 12.224 18.7106 12.976V13.216C18.7106 13.984 18.8306 14.64 19.0706 15.184C19.3266 15.728 19.6706 16.144 20.1026 16.432C20.5346 16.72 21.0386 16.864 21.6146 16.864ZM35.7172 19C34.5972 19 33.7012 18.704 33.0292 18.112C32.3732 17.52 32.0452 16.688 32.0452 15.616V2.752L33.4613 3.76H28.4932V1.48H35.2373V16.048C35.2373 16.24 35.3012 16.4 35.4292 16.528C35.5573 16.656 35.7173 16.72 35.9093 16.72H40.8772V19H35.7172ZM42.6679 23.8V21.52H45.1639C45.3079 21.52 45.4279 21.472 45.5239 21.376C45.6359 21.296 45.7159 21.192 45.7639 21.064L47.9959 16.384L50.9719 7.24H54.4999L49.1719 20.8C48.9959 21.248 48.7639 21.704 48.4759 22.168C48.1879 22.632 47.7879 23.016 47.2759 23.32C46.7639 23.64 46.0679 23.8 45.1879 23.8H42.6679ZM47.1319 20.344L41.8999 7.24H45.4519L49.0039 17.08L47.1319 20.344ZM63.9225 19.24C63.0265 19.24 62.2105 19.024 61.4745 18.592C60.7545 18.144 60.2105 17.488 59.8425 16.624L60.0585 16.144V19H57.1785V1.48H60.3705V9.808L60.1305 9.256C60.4665 8.504 60.9705 7.944 61.6425 7.576C62.3145 7.192 63.0665 7 63.8985 7C64.9065 7 65.7705 7.24 66.4905 7.72C67.2265 8.2 67.7865 8.888 68.1705 9.784C68.5705 10.664 68.7705 11.736 68.7705 13V13.24C68.7705 14.488 68.5705 15.56 68.1705 16.456C67.7865 17.352 67.2345 18.04 66.5145 18.52C65.7945 19 64.9305 19.24 63.9225 19.24ZM62.9385 16.864C63.7865 16.864 64.4345 16.56 64.8825 15.952C65.3465 15.344 65.5785 14.44 65.5785 13.24V13C65.5785 11.8 65.3465 10.896 64.8825 10.288C64.4345 9.68 63.7865 9.376 62.9385 9.376C62.3625 9.376 61.8665 9.52 61.4505 9.808C61.0345 10.096 60.7145 10.512 60.4905 11.056C60.2665 11.6 60.1545 12.288 60.1545 13.12C60.1545 13.952 60.2665 14.648 60.4905 15.208C60.7145 15.752 61.0345 16.168 61.4505 16.456C61.8665 16.728 62.3625 16.864 62.9385 16.864ZM79.1051 19V15.472L78.7211 14.296V11.416C78.7211 10.76 78.5291 10.288 78.1451 10C77.7611 9.696 77.2891 9.544 76.7291 9.544C76.1531 9.544 75.5451 9.664 74.9051 9.904C74.2811 10.128 73.6971 10.464 73.1531 10.912L72.0011 8.92C72.5131 8.344 73.2091 7.88 74.0891 7.528C74.9691 7.176 75.9211 7 76.9451 7C77.9051 7 78.7531 7.176 79.4891 7.528C80.2251 7.864 80.8011 8.368 81.2171 9.04C81.6491 9.696 81.8651 10.496 81.8651 11.44V15.256C81.8651 15.88 81.8651 16.504 81.8651 17.128C81.8811 17.752 81.9051 18.376 81.9371 19H79.1051ZM75.6971 19.24C74.4331 19.24 73.4411 18.92 72.7211 18.28C72.0171 17.624 71.6651 16.784 71.6651 15.76C71.6651 14.688 72.0331 13.824 72.7691 13.168C73.5211 12.496 74.6491 12.16 76.1531 12.16C76.9531 12.16 77.6651 12.312 78.2891 12.616C78.9131 12.904 79.4011 13.312 79.7531 13.84C80.1211 14.352 80.3051 14.928 80.3051 15.568H79.4171C79.4171 16.288 79.2571 16.928 78.9371 17.488C78.6331 18.032 78.2011 18.464 77.6411 18.784C77.0971 19.088 76.4491 19.24 75.6971 19.24ZM76.7771 17.104C77.3691 17.104 77.8411 16.968 78.1931 16.696C78.5611 16.424 78.7451 16.064 78.7451 15.616C78.7451 15.184 78.5611 14.832 78.1931 14.56C77.8411 14.288 77.3691 14.152 76.7771 14.152C76.2011 14.152 75.7371 14.288 75.3851 14.56C75.0331 14.832 74.8571 15.184 74.8571 15.616C74.8571 16.064 75.0331 16.424 75.3851 16.696C75.7371 16.968 76.2011 17.104 76.7771 17.104ZM86.0317 19V7.24H89.1037V10.504H88.6717C88.7677 9.768 88.9597 9.176 89.2477 8.728C89.5517 8.264 89.8957 7.912 90.2797 7.672C90.6797 7.416 91.0877 7.24 91.5037 7.144C91.9197 7.048 92.3037 7 92.6557 7C93.9837 7 94.9997 7.44 95.7037 8.32C96.4077 9.184 96.7597 10.4 96.7597 11.968V19H93.5917V12.064C93.5917 11.152 93.4077 10.496 93.0397 10.096C92.6717 9.68 92.1677 9.472 91.5277 9.472C90.8717 9.472 90.3197 9.704 89.8717 10.168C89.4237 10.616 89.1997 11.272 89.1997 12.136V19H86.0317ZM102.054 17.44L102.318 13.408L108.414 7.24H112.062L102.054 17.44ZM100.302 19V1.48H103.494V19H100.302ZM108.27 19L103.854 12.64L106.206 10.504L112.182 19H108.27Z" fill="#F8F0FB"/>
</svg>
