<svg width="70" height="21" viewBox="0 0 70 21" fill="none" xmlns="http://www.w3.org/2000/svg">
<g opacity="0.7">
<path d="M29.916 20.669H24.3235L27.8215 0.367981H33.4137L29.916 20.669Z" fill="#141414"/>
<path d="M50.1889 0.864295C49.0858 0.453532 47.3362 0 45.1729 0C39.6501 0 35.761 2.76425 35.7372 6.7163C35.6913 9.63211 38.5216 11.2516 40.6385 12.2238C42.8022 13.2173 43.5377 13.8657 43.5377 14.7513C43.5157 16.1113 41.7893 16.7382 40.1792 16.7382C37.9464 16.7382 36.75 16.415 34.9319 15.6583L34.1955 15.334L33.4129 19.8911C34.7246 20.452 37.1412 20.9498 39.6501 20.9716C45.5181 20.9716 49.3384 18.2501 49.3837 14.0386C49.406 11.7275 47.9115 9.95676 44.6894 8.50976C42.7334 7.58088 41.5355 6.95455 41.5355 6.00414C41.5584 5.14013 42.5487 4.25517 44.7567 4.25517C46.5747 4.21182 47.9106 4.62201 48.9225 5.03249L49.4283 5.24806L50.1889 0.864295Z" fill="#141414"/>
<path fill-rule="evenodd" clip-rule="evenodd" d="M60.1997 0.367981H64.5255L69.0372 20.6687H63.8591C63.8591 20.6687 63.3523 18.3362 63.1918 17.6234H56.0115C55.8038 18.1631 54.8377 20.6687 54.8377 20.6687H48.9697L57.2766 2.05237C57.8522 0.734826 58.8657 0.367981 60.1997 0.367981ZM59.8551 7.79701C59.8551 7.79701 58.0829 12.3108 57.6223 13.4771H62.2708C62.0408 12.4621 60.9817 7.60268 60.9817 7.60268L60.5909 5.85343C60.4263 6.30387 60.1883 6.92317 60.0278 7.34087C59.9189 7.62401 59.8457 7.81452 59.8551 7.79701Z" fill="#141414"/>
<path d="M9.08984 0.367981C10.3093 0.410748 11.299 0.777784 11.6211 2.07404L13.5762 11.4022L13.5771 11.4041L14.1758 14.2117L19.6523 0.367981H25.5664L16.7754 20.6473H10.8623L5.87598 3.00763C4.15637 2.06411 2.19413 1.30478 0 0.778137L0.0917969 0.367981H9.08984Z" fill="#141414"/>
</g>
</svg>
